<svg xmlns="http://www.w3.org/2000/svg" viewBox="0 0 64 64" fill="none" aria-hidden="true">
  <rect width="64" height="64" rx="15" fill="#fff" stroke="#e8d2dc" stroke-width="1.25"/>
  <!-- CuraBot mark -->
  <g stroke="#c49aad" stroke-width="1.85" stroke-linecap="round" stroke-linejoin="round" fill="none">
    <path d="M17 33c0-6 4-11 9-11 1-4 4-7 7-7s6 3 7 7c5 0 9 5 9 11 0 7-6 12-16 12s-16-5-16-12z" opacity="0.95"/>
    <path d="M14 24l2.5 5.5 4.5-3.5M27 17l-1.5 6 5.5 1.5"/>
    <path d="M23 31v.1M29 31v.1"/>
    <path d="M24 37c1.5 1.5 3.5 1.5 5 0"/>
    <path d="M38 22c6.5 0 12 5 12 11.5 0 6.5-4.5 12-11 13-1.5 2.5-4 4-7 4s-5.5-1.5-7-4c-6.5-1-11-6.5-11-13C21 27 26.5 22 33 22c2-2.5 4.5-4 7.5-4s5.5 1.5 7.5 4z"/>
    <path d="M37 30h3M44 30h3"/>
    <path d="M39 34h.1M45 34h.1"/>
    <path d="M40 39c1.5 1.2 3.5 1.2 5 0"/>
    <path d="M42 45c0 1.5 1.5 2 2.5.5"/>
  </g>
  <path d="M31 12.5c-.8-1.8-3-1.8-3.2.2-.2 2 1.8 3.5 3.2 4.8 1.4-1.3 3.4-2.8 3.2-4.8-.2-2-2.4-2-3.2-.2z" fill="#f5dbe5" stroke="#e8c4d2" stroke-width="0.75" opacity="0.95"/>
</svg>
