<svg xmlns="http://www.w3.org/2000/svg" viewBox="0 0 140 140" fill="none" aria-hidden="true">
  <defs>
    <linearGradient id="hd-bg" x1="0" y1="0" x2="1" y2="1">
      <stop offset="0" stop-color="#f5f8ff"/>
      <stop offset="1" stop-color="#e8eef8"/>
    </linearGradient>
  </defs>
  <circle cx="70" cy="70" r="68" fill="url(#hd-bg)" stroke="#c8d4e8" stroke-width="2"/>
  <!-- dog / border-collie style head -->
  <g transform="translate(24 18)">
    <ellipse cx="46" cy="58" rx="38" ry="44" fill="#1e1e1e" stroke="#0d0d0d" stroke-width="1.5"/>
    <ellipse cx="46" cy="62" rx="28" ry="34" fill="#f4f4f4" stroke="#ccc" stroke-width="1"/>
    <path d="M12 48 Q8 28 22 18 L32 24 Q26 38 20 52 Z" fill="#1e1e1e"/>
    <path d="M80 48 Q84 28 70 18 L60 24 Q66 38 72 52 Z" fill="#1e1e1e"/>
    <ellipse cx="38" cy="54" rx="5" ry="6" fill="#1a1a1a"/>
    <ellipse cx="56" cy="54" rx="5" ry="6" fill="#1a1a1a"/>
    <ellipse cx="46" cy="68" rx="7" ry="5" fill="#1a1a1a"/>
    <path d="M40 78 Q46 84 52 78" stroke="#888" stroke-width="2" stroke-linecap="round" fill="none"/>
    <!-- white blaze -->
    <path d="M46 28 L46 52" stroke="#ddd" stroke-width="8" stroke-linecap="round" opacity="0.9"/>
  </g>
</svg>
