<svg xmlns="http://www.w3.org/2000/svg" viewBox="0 0 140 140" fill="none" aria-hidden="true">
  <defs>
    <linearGradient id="hc-bg" x1="0" y1="0" x2="1" y2="1">
      <stop offset="0" stop-color="#fff5f0"/>
      <stop offset="1" stop-color="#ffe8dc"/>
    </linearGradient>
  </defs>
  <circle cx="70" cy="70" r="68" fill="url(#hc-bg)" stroke="#f0c9b8" stroke-width="2"/>
  <!-- cat silhouette -->
  <g transform="translate(28 22)">
    <path
      d="M42 8 L52 2 L58 14 L72 10 L78 22 L88 18 C96 28 100 42 98 56 C96 78 78 92 56 94 C28 96 8 72 10 48 C12 32 22 20 36 14 Z"
      fill="#e8a070"
      stroke="#c97d4a"
      stroke-width="2"
      stroke-linejoin="round"
    />
    <path d="M24 38 Q18 48 22 58" stroke="#c97d4a" stroke-width="2.5" stroke-linecap="round" fill="none"/>
    <path d="M78 38 Q84 48 80 58" stroke="#c97d4a" stroke-width="2.5" stroke-linecap="round" fill="none"/>
    <ellipse cx="44" cy="48" rx="4" ry="5" fill="#2d2d2d"/>
    <ellipse cx="64" cy="48" rx="4" ry="5" fill="#2d2d2d"/>
    <path d="M50 62 Q54 66 58 62" stroke="#2d2d2d" stroke-width="2" stroke-linecap="round" fill="none"/>
    <path d="M48 72 Q54 78 60 72" stroke="#b56b3c" stroke-width="2" stroke-linecap="round" fill="none"/>
  </g>
</svg>
